<svg xmlns:xlink="http://www.w3.org/1999/xlink" width="238.965625pt" height="180.65625pt" viewBox="0 0 238.965625 180.65625" xmlns="http://www.w3.org/2000/svg" version="1.1" style="width: 100%; height: 100%;">
 <metadata>
  <rdf:rdf xmlns:dc="http://purl.org/dc/elements/1.1/" xmlns:cc="http://creativecommons.org/ns#" xmlns:rdf="http://www.w3.org/1999/02/22-rdf-syntax-ns#">
   <cc:work>
    <dc:type rdf:resource="http://purl.org/dc/dcmitype/StillImage"></dc:type>
    <dc:date>2022-04-27T12:00:17.543915</dc:date>
    <dc:format>image/svg+xml</dc:format>
    <dc:creator>
     <cc:agent>
      <dc:title>Matplotlib v3.5.1, https://matplotlib.org/</dc:title>
     </cc:agent>
    </dc:creator>
   </cc:work>
  </rdf:rdf>
 </metadata>
 <defs>
  <style type="text/css">*{stroke-linejoin: round; stroke-linecap: butt}</style>
 </defs>
 <g id="figure_1">
  <g id="patch_1">
   <path d="M 0 180.65625 
L 238.965625 180.65625 
L 238.965625 0 
L 0 0 
L 0 180.65625 
z
" style="fill: none"></path>
  </g>
  <g id="axes_1">
   <g id="patch_2">
    <path d="M 36.465625 143.1 
L 231.765625 143.1 
L 231.765625 7.2 
L 36.465625 7.2 
z
" style="fill: #ffffff"></path>
   </g>
   <g id="matplotlib.axis_1">
    <g id="xtick_1">
     <g id="line2d_1">
      <path d="M 36.465625 143.1 
L 36.465625 7.2 
" clip-path="url(#p5414a314d9)" style="fill: none; stroke: #b0b0b0; stroke-width: 0.8; stroke-linecap: square"></path>
     </g>
     <g id="line2d_2">
      <defs>
       <path id="m10a44224d7" d="M 0 0 
L 0 3.5 
" style="stroke: #000000; stroke-width: 0.8"></path>
      </defs>
      <g>
       <use xlink:href="#m10a44224d7" x="36.465625" y="143.1" style="stroke: #000000; stroke-width: 0.8"></use>
      </g>
     </g>
     <g id="text_1">
      <!-- 0 -->
      <g transform="translate(33.284375 157.698438)scale(0.1 -0.1)">
       <defs>
        <path id="DejaVuSans-30" d="M 2034 4250 
Q 1547 4250 1301 3770 
Q 1056 3291 1056 2328 
Q 1056 1369 1301 889 
Q 1547 409 2034 409 
Q 2525 409 2770 889 
Q 3016 1369 3016 2328 
Q 3016 3291 2770 3770 
Q 2525 4250 2034 4250 
z
M 2034 4750 
Q 2819 4750 3233 4129 
Q 3647 3509 3647 2328 
Q 3647 1150 3233 529 
Q 2819 -91 2034 -91 
Q 1250 -91 836 529 
Q 422 1150 422 2328 
Q 422 3509 836 4129 
Q 1250 4750 2034 4750 
z
" transform="scale(0.015625)"></path>
       </defs>
       <use xlink:href="#DejaVuSans-30"></use>
      </g>
     </g>
    </g>
    <g id="xtick_2">
     <g id="line2d_3">
      <path d="M 70.138039 143.1 
L 70.138039 7.2 
" clip-path="url(#p5414a314d9)" style="fill: none; stroke: #b0b0b0; stroke-width: 0.8; stroke-linecap: square"></path>
     </g>
     <g id="line2d_4">
      <g>
       <use xlink:href="#m10a44224d7" x="70.138039" y="143.1" style="stroke: #000000; stroke-width: 0.8"></use>
      </g>
     </g>
     <g id="text_2">
      <!-- 25 -->
      <g transform="translate(63.775539 157.698438)scale(0.1 -0.1)">
       <defs>
        <path id="DejaVuSans-32" d="M 1228 531 
L 3431 531 
L 3431 0 
L 469 0 
L 469 531 
Q 828 903 1448 1529 
Q 2069 2156 2228 2338 
Q 2531 2678 2651 2914 
Q 2772 3150 2772 3378 
Q 2772 3750 2511 3984 
Q 2250 4219 1831 4219 
Q 1534 4219 1204 4116 
Q 875 4013 500 3803 
L 500 4441 
Q 881 4594 1212 4672 
Q 1544 4750 1819 4750 
Q 2544 4750 2975 4387 
Q 3406 4025 3406 3419 
Q 3406 3131 3298 2873 
Q 3191 2616 2906 2266 
Q 2828 2175 2409 1742 
Q 1991 1309 1228 531 
z
" transform="scale(0.015625)"></path>
        <path id="DejaVuSans-35" d="M 691 4666 
L 3169 4666 
L 3169 4134 
L 1269 4134 
L 1269 2991 
Q 1406 3038 1543 3061 
Q 1681 3084 1819 3084 
Q 2600 3084 3056 2656 
Q 3513 2228 3513 1497 
Q 3513 744 3044 326 
Q 2575 -91 1722 -91 
Q 1428 -91 1123 -41 
Q 819 9 494 109 
L 494 744 
Q 775 591 1075 516 
Q 1375 441 1709 441 
Q 2250 441 2565 725 
Q 2881 1009 2881 1497 
Q 2881 1984 2565 2268 
Q 2250 2553 1709 2553 
Q 1456 2553 1204 2497 
Q 953 2441 691 2322 
L 691 4666 
z
" transform="scale(0.015625)"></path>
       </defs>
       <use xlink:href="#DejaVuSans-32"></use>
       <use xlink:href="#DejaVuSans-35" x="63.623047"></use>
      </g>
     </g>
    </g>
    <g id="xtick_3">
     <g id="line2d_5">
      <path d="M 103.810453 143.1 
L 103.810453 7.2 
" clip-path="url(#p5414a314d9)" style="fill: none; stroke: #b0b0b0; stroke-width: 0.8; stroke-linecap: square"></path>
     </g>
     <g id="line2d_6">
      <g>
       <use xlink:href="#m10a44224d7" x="103.810453" y="143.1" style="stroke: #000000; stroke-width: 0.8"></use>
      </g>
     </g>
     <g id="text_3">
      <!-- 50 -->
      <g transform="translate(97.447953 157.698438)scale(0.1 -0.1)">
       <use xlink:href="#DejaVuSans-35"></use>
       <use xlink:href="#DejaVuSans-30" x="63.623047"></use>
      </g>
     </g>
    </g>
    <g id="xtick_4">
     <g id="line2d_7">
      <path d="M 137.482866 143.1 
L 137.482866 7.2 
" clip-path="url(#p5414a314d9)" style="fill: none; stroke: #b0b0b0; stroke-width: 0.8; stroke-linecap: square"></path>
     </g>
     <g id="line2d_8">
      <g>
       <use xlink:href="#m10a44224d7" x="137.482866" y="143.1" style="stroke: #000000; stroke-width: 0.8"></use>
      </g>
     </g>
     <g id="text_4">
      <!-- 75 -->
      <g transform="translate(131.120366 157.698438)scale(0.1 -0.1)">
       <defs>
        <path id="DejaVuSans-37" d="M 525 4666 
L 3525 4666 
L 3525 4397 
L 1831 0 
L 1172 0 
L 2766 4134 
L 525 4134 
L 525 4666 
z
" transform="scale(0.015625)"></path>
       </defs>
       <use xlink:href="#DejaVuSans-37"></use>
       <use xlink:href="#DejaVuSans-35" x="63.623047"></use>
      </g>
     </g>
    </g>
    <g id="xtick_5">
     <g id="line2d_9">
      <path d="M 171.15528 143.1 
L 171.15528 7.2 
" clip-path="url(#p5414a314d9)" style="fill: none; stroke: #b0b0b0; stroke-width: 0.8; stroke-linecap: square"></path>
     </g>
     <g id="line2d_10">
      <g>
       <use xlink:href="#m10a44224d7" x="171.15528" y="143.1" style="stroke: #000000; stroke-width: 0.8"></use>
      </g>
     </g>
     <g id="text_5">
      <!-- 100 -->
      <g transform="translate(161.61153 157.698438)scale(0.1 -0.1)">
       <defs>
        <path id="DejaVuSans-31" d="M 794 531 
L 1825 531 
L 1825 4091 
L 703 3866 
L 703 4441 
L 1819 4666 
L 2450 4666 
L 2450 531 
L 3481 531 
L 3481 0 
L 794 0 
L 794 531 
z
" transform="scale(0.015625)"></path>
       </defs>
       <use xlink:href="#DejaVuSans-31"></use>
       <use xlink:href="#DejaVuSans-30" x="63.623047"></use>
       <use xlink:href="#DejaVuSans-30" x="127.246094"></use>
      </g>
     </g>
    </g>
    <g id="xtick_6">
     <g id="line2d_11">
      <path d="M 204.827694 143.1 
L 204.827694 7.2 
" clip-path="url(#p5414a314d9)" style="fill: none; stroke: #b0b0b0; stroke-width: 0.8; stroke-linecap: square"></path>
     </g>
     <g id="line2d_12">
      <g>
       <use xlink:href="#m10a44224d7" x="204.827694" y="143.1" style="stroke: #000000; stroke-width: 0.8"></use>
      </g>
     </g>
     <g id="text_6">
      <!-- 125 -->
      <g transform="translate(195.283944 157.698438)scale(0.1 -0.1)">
       <use xlink:href="#DejaVuSans-31"></use>
       <use xlink:href="#DejaVuSans-32" x="63.623047"></use>
       <use xlink:href="#DejaVuSans-35" x="127.246094"></use>
      </g>
     </g>
    </g>
    <g id="text_7">
     <!-- epoch -->
     <g transform="translate(118.8875 171.376563)scale(0.1 -0.1)">
      <defs>
       <path id="DejaVuSans-65" d="M 3597 1894 
L 3597 1613 
L 953 1613 
Q 991 1019 1311 708 
Q 1631 397 2203 397 
Q 2534 397 2845 478 
Q 3156 559 3463 722 
L 3463 178 
Q 3153 47 2828 -22 
Q 2503 -91 2169 -91 
Q 1331 -91 842 396 
Q 353 884 353 1716 
Q 353 2575 817 3079 
Q 1281 3584 2069 3584 
Q 2775 3584 3186 3129 
Q 3597 2675 3597 1894 
z
M 3022 2063 
Q 3016 2534 2758 2815 
Q 2500 3097 2075 3097 
Q 1594 3097 1305 2825 
Q 1016 2553 972 2059 
L 3022 2063 
z
" transform="scale(0.015625)"></path>
       <path id="DejaVuSans-70" d="M 1159 525 
L 1159 -1331 
L 581 -1331 
L 581 3500 
L 1159 3500 
L 1159 2969 
Q 1341 3281 1617 3432 
Q 1894 3584 2278 3584 
Q 2916 3584 3314 3078 
Q 3713 2572 3713 1747 
Q 3713 922 3314 415 
Q 2916 -91 2278 -91 
Q 1894 -91 1617 61 
Q 1341 213 1159 525 
z
M 3116 1747 
Q 3116 2381 2855 2742 
Q 2594 3103 2138 3103 
Q 1681 3103 1420 2742 
Q 1159 2381 1159 1747 
Q 1159 1113 1420 752 
Q 1681 391 2138 391 
Q 2594 391 2855 752 
Q 3116 1113 3116 1747 
z
" transform="scale(0.015625)"></path>
       <path id="DejaVuSans-6f" d="M 1959 3097 
Q 1497 3097 1228 2736 
Q 959 2375 959 1747 
Q 959 1119 1226 758 
Q 1494 397 1959 397 
Q 2419 397 2687 759 
Q 2956 1122 2956 1747 
Q 2956 2369 2687 2733 
Q 2419 3097 1959 3097 
z
M 1959 3584 
Q 2709 3584 3137 3096 
Q 3566 2609 3566 1747 
Q 3566 888 3137 398 
Q 2709 -91 1959 -91 
Q 1206 -91 779 398 
Q 353 888 353 1747 
Q 353 2609 779 3096 
Q 1206 3584 1959 3584 
z
" transform="scale(0.015625)"></path>
       <path id="DejaVuSans-63" d="M 3122 3366 
L 3122 2828 
Q 2878 2963 2633 3030 
Q 2388 3097 2138 3097 
Q 1578 3097 1268 2742 
Q 959 2388 959 1747 
Q 959 1106 1268 751 
Q 1578 397 2138 397 
Q 2388 397 2633 464 
Q 2878 531 3122 666 
L 3122 134 
Q 2881 22 2623 -34 
Q 2366 -91 2075 -91 
Q 1284 -91 818 406 
Q 353 903 353 1747 
Q 353 2603 823 3093 
Q 1294 3584 2113 3584 
Q 2378 3584 2631 3529 
Q 2884 3475 3122 3366 
z
" transform="scale(0.015625)"></path>
       <path id="DejaVuSans-68" d="M 3513 2113 
L 3513 0 
L 2938 0 
L 2938 2094 
Q 2938 2591 2744 2837 
Q 2550 3084 2163 3084 
Q 1697 3084 1428 2787 
Q 1159 2491 1159 1978 
L 1159 0 
L 581 0 
L 581 4863 
L 1159 4863 
L 1159 2956 
Q 1366 3272 1645 3428 
Q 1925 3584 2291 3584 
Q 2894 3584 3203 3211 
Q 3513 2838 3513 2113 
z
" transform="scale(0.015625)"></path>
      </defs>
      <use xlink:href="#DejaVuSans-65"></use>
      <use xlink:href="#DejaVuSans-70" x="61.523438"></use>
      <use xlink:href="#DejaVuSans-6f" x="125"></use>
      <use xlink:href="#DejaVuSans-63" x="186.181641"></use>
      <use xlink:href="#DejaVuSans-68" x="241.162109"></use>
     </g>
    </g>
   </g>
   <g id="matplotlib.axis_2">
    <g id="ytick_1">
     <g id="line2d_13">
      <path d="M 36.465625 140.574667 
L 231.765625 140.574667 
" clip-path="url(#p5414a314d9)" style="fill: none; stroke: #b0b0b0; stroke-width: 0.8; stroke-linecap: square"></path>
     </g>
     <g id="line2d_14">
      <defs>
       <path id="me7a8af4b94" d="M 0 0 
L -3.5 0 
" style="stroke: #000000; stroke-width: 0.8"></path>
      </defs>
      <g>
       <use xlink:href="#me7a8af4b94" x="36.465625" y="140.574667" style="stroke: #000000; stroke-width: 0.8"></use>
      </g>
     </g>
     <g id="text_8">
      <!-- 0.0 -->
      <g transform="translate(13.5625 144.373886)scale(0.1 -0.1)">
       <defs>
        <path id="DejaVuSans-2e" d="M 684 794 
L 1344 794 
L 1344 0 
L 684 0 
L 684 794 
z
" transform="scale(0.015625)"></path>
       </defs>
       <use xlink:href="#DejaVuSans-30"></use>
       <use xlink:href="#DejaVuSans-2e" x="63.623047"></use>
       <use xlink:href="#DejaVuSans-30" x="95.410156"></use>
      </g>
     </g>
    </g>
    <g id="ytick_2">
     <g id="line2d_15">
      <path d="M 36.465625 115.554526 
L 231.765625 115.554526 
" clip-path="url(#p5414a314d9)" style="fill: none; stroke: #b0b0b0; stroke-width: 0.8; stroke-linecap: square"></path>
     </g>
     <g id="line2d_16">
      <g>
       <use xlink:href="#me7a8af4b94" x="36.465625" y="115.554526" style="stroke: #000000; stroke-width: 0.8"></use>
      </g>
     </g>
     <g id="text_9">
      <!-- 2.5 -->
      <g transform="translate(13.5625 119.353745)scale(0.1 -0.1)">
       <use xlink:href="#DejaVuSans-32"></use>
       <use xlink:href="#DejaVuSans-2e" x="63.623047"></use>
       <use xlink:href="#DejaVuSans-35" x="95.410156"></use>
      </g>
     </g>
    </g>
    <g id="ytick_3">
     <g id="line2d_17">
      <path d="M 36.465625 90.534384 
L 231.765625 90.534384 
" clip-path="url(#p5414a314d9)" style="fill: none; stroke: #b0b0b0; stroke-width: 0.8; stroke-linecap: square"></path>
     </g>
     <g id="line2d_18">
      <g>
       <use xlink:href="#me7a8af4b94" x="36.465625" y="90.534384" style="stroke: #000000; stroke-width: 0.8"></use>
      </g>
     </g>
     <g id="text_10">
      <!-- 5.0 -->
      <g transform="translate(13.5625 94.333603)scale(0.1 -0.1)">
       <use xlink:href="#DejaVuSans-35"></use>
       <use xlink:href="#DejaVuSans-2e" x="63.623047"></use>
       <use xlink:href="#DejaVuSans-30" x="95.410156"></use>
      </g>
     </g>
    </g>
    <g id="ytick_4">
     <g id="line2d_19">
      <path d="M 36.465625 65.514243 
L 231.765625 65.514243 
" clip-path="url(#p5414a314d9)" style="fill: none; stroke: #b0b0b0; stroke-width: 0.8; stroke-linecap: square"></path>
     </g>
     <g id="line2d_20">
      <g>
       <use xlink:href="#me7a8af4b94" x="36.465625" y="65.514243" style="stroke: #000000; stroke-width: 0.8"></use>
      </g>
     </g>
     <g id="text_11">
      <!-- 7.5 -->
      <g transform="translate(13.5625 69.313462)scale(0.1 -0.1)">
       <use xlink:href="#DejaVuSans-37"></use>
       <use xlink:href="#DejaVuSans-2e" x="63.623047"></use>
       <use xlink:href="#DejaVuSans-35" x="95.410156"></use>
      </g>
     </g>
    </g>
    <g id="ytick_5">
     <g id="line2d_21">
      <path d="M 36.465625 40.494102 
L 231.765625 40.494102 
" clip-path="url(#p5414a314d9)" style="fill: none; stroke: #b0b0b0; stroke-width: 0.8; stroke-linecap: square"></path>
     </g>
     <g id="line2d_22">
      <g>
       <use xlink:href="#me7a8af4b94" x="36.465625" y="40.494102" style="stroke: #000000; stroke-width: 0.8"></use>
      </g>
     </g>
     <g id="text_12">
      <!-- 10.0 -->
      <g transform="translate(7.2 44.293321)scale(0.1 -0.1)">
       <use xlink:href="#DejaVuSans-31"></use>
       <use xlink:href="#DejaVuSans-30" x="63.623047"></use>
       <use xlink:href="#DejaVuSans-2e" x="127.246094"></use>
       <use xlink:href="#DejaVuSans-30" x="159.033203"></use>
      </g>
     </g>
    </g>
    <g id="ytick_6">
     <g id="line2d_23">
      <path d="M 36.465625 15.473961 
L 231.765625 15.473961 
" clip-path="url(#p5414a314d9)" style="fill: none; stroke: #b0b0b0; stroke-width: 0.8; stroke-linecap: square"></path>
     </g>
     <g id="line2d_24">
      <g>
       <use xlink:href="#me7a8af4b94" x="36.465625" y="15.473961" style="stroke: #000000; stroke-width: 0.8"></use>
      </g>
     </g>
     <g id="text_13">
      <!-- 12.5 -->
      <g transform="translate(7.2 19.273179)scale(0.1 -0.1)">
       <use xlink:href="#DejaVuSans-31"></use>
       <use xlink:href="#DejaVuSans-32" x="63.623047"></use>
       <use xlink:href="#DejaVuSans-2e" x="127.246094"></use>
       <use xlink:href="#DejaVuSans-35" x="159.033203"></use>
      </g>
     </g>
    </g>
   </g>
   <g id="line2d_25">
    <path d="M 36.735004 13.377273 
L 37.273763 35.971461 
L 37.812522 46.079598 
L 38.081901 65.239022 
L 38.35128 68.991042 
L 38.620659 70.101936 
L 39.159418 73.612763 
L 39.428797 81.181856 
L 39.698177 81.334979 
L 40.236935 82.75212 
L 40.506315 83.318576 
L 40.775694 87.276762 
L 41.045073 87.144656 
L 41.583832 88.676889 
L 41.853211 88.668883 
L 42.122591 91.240953 
L 42.39197 91.243956 
L 43.200108 92.160694 
L 43.469487 95.862674 
L 43.738866 95.810632 
L 44.008246 95.487372 
L 44.277625 95.718558 
L 44.547004 95.211149 
L 44.816384 98.791031 
L 45.085763 99.029223 
L 45.355142 98.282622 
L 45.893901 98.058441 
L 46.16328 101.509219 
L 46.702039 101.164942 
L 46.971418 100.643522 
L 47.240797 100.443361 
L 47.510177 103.121517 
L 47.779556 103.077482 
L 48.048935 102.380921 
L 48.587694 102.228799 
L 48.857073 105.234218 
L 49.126453 104.657754 
L 49.934591 103.882129 
L 50.20397 106.874538 
L 50.473349 107.640155 
L 50.742728 107.180785 
L 51.281487 106.780463 
L 51.550866 110.189207 
L 51.820246 110.21823 
L 52.628384 109.660781 
L 52.897763 112.465039 
L 53.167142 112.270882 
L 53.436522 111.63437 
L 53.705901 111.772481 
L 53.97528 111.685411 
L 54.244659 114.749878 
L 54.783418 114.142389 
L 55.322177 113.763084 
L 55.591556 114.86397 
L 55.860935 114.981064 
L 56.130315 114.713849 
L 56.399694 114.915011 
L 56.669073 114.960047 
L 56.938453 117.637202 
L 57.207832 117.168825 
L 57.477211 117.169826 
L 58.01597 117.031715 
L 58.285349 118.649017 
L 59.362866 118.46687 
L 59.632246 119.718878 
L 59.901625 120.052146 
L 60.171004 119.992098 
L 60.709763 119.615795 
L 60.979142 120.683655 
L 61.248522 120.829772 
L 61.517901 120.525527 
L 61.78728 120.672646 
L 62.056659 120.564559 
L 62.326039 122.038746 
L 62.595418 122.319972 
L 62.864797 122.170852 
L 63.403556 122.137825 
L 63.672935 122.700278 
L 63.942315 122.676259 
L 64.211694 122.885427 
L 64.481073 122.942473 
L 64.750453 122.725298 
L 65.019832 123.680067 
L 65.289211 123.867218 
L 66.097349 123.403845 
L 66.366728 124.632834 
L 66.636108 124.372624 
L 67.444246 124.166458 
L 67.713625 126.028958 
L 68.252384 125.374431 
L 68.521763 125.495528 
L 68.791142 125.240323 
L 69.060522 125.28636 
L 69.329901 125.463503 
L 70.138039 125.378434 
L 70.407418 126.112025 
L 70.946177 125.959902 
L 71.215556 126.046972 
L 71.484935 125.996932 
L 71.754315 126.986729 
L 72.023694 126.840611 
L 72.293073 126.526358 
L 72.562453 126.573396 
L 72.831832 126.463307 
L 73.101211 127.147858 
L 73.63997 127.02576 
L 74.178728 126.78957 
L 74.448108 127.222919 
L 74.717487 127.434089 
L 75.525625 127.486131 
L 75.795004 127.672281 
L 76.064384 127.599222 
L 77.141901 127.866437 
L 77.41128 128.040577 
L 77.950039 127.988535 
L 78.488797 128.184693 
L 78.758177 128.40387 
L 79.566315 128.386856 
L 79.835694 129.131455 
L 80.105073 128.964321 
L 80.374453 129.048388 
L 81.182591 128.786177 
L 81.45197 128.986338 
L 81.721349 128.885257 
L 82.260108 128.982335 
L 82.529487 129.768968 
L 82.798866 129.488743 
L 83.607004 129.404675 
L 83.876384 130.432503 
L 84.145763 130.223334 
L 84.415142 129.85804 
L 84.953901 129.583819 
L 85.22328 130.204319 
L 85.492659 130.162285 
L 86.031418 129.843028 
L 86.300797 129.79599 
L 86.570177 130.233342 
L 86.839556 129.832019 
L 87.378315 129.77097 
L 87.647694 129.877055 
L 87.917073 130.725739 
L 88.725211 130.286385 
L 88.994591 130.184303 
L 89.26397 130.457523 
L 90.072108 130.434504 
L 90.341487 130.40448 
L 90.880246 130.718733 
L 91.149625 130.581623 
L 91.688384 130.70272 
L 91.957763 131.421299 
L 92.227142 131.38527 
L 92.765901 131.020976 
L 94.651556 130.708725 
L 94.920935 131.114051 
L 95.459694 131.218135 
L 95.729073 131.152082 
L 95.998453 131.333228 
L 96.267832 131.11205 
L 96.537211 131.062009 
L 97.07597 131.21213 
L 97.345349 131.924704 
L 97.614728 131.625463 
L 98.153487 131.43531 
L 98.422866 131.461331 
L 98.692246 131.970741 
L 98.961625 131.64648 
L 99.769763 131.677505 
L 100.039142 132.14388 
L 100.308522 131.905689 
L 101.386039 131.712533 
L 101.655418 131.425302 
L 101.924797 131.402283 
L 102.463556 131.526383 
L 102.732935 131.959732 
L 103.002315 132.010773 
L 103.271694 131.827626 
L 103.810453 131.826625 
L 104.079832 132.310014 
L 104.88797 131.916697 
L 105.157349 131.959732 
L 105.426728 132.216939 
L 105.696108 132.008772 
L 105.965487 132.21794 
L 106.504246 132.195922 
L 106.773625 132.928512 
L 107.312384 132.354049 
L 107.581763 132.264978 
L 107.851142 132.337036 
L 108.120522 132.704331 
L 109.198039 132.482153 
L 109.467418 132.793403 
L 109.736797 132.600248 
L 110.544935 132.579231 
L 110.814315 132.949529 
L 111.083694 132.416099 
L 111.622453 132.505171 
L 111.891832 132.494162 
L 112.161211 132.854452 
L 112.69997 132.620264 
L 113.238728 132.642281 
L 113.508108 132.410095 
L 114.046866 132.57823 
L 114.585625 132.60325 
L 114.855004 132.732354 
L 115.124384 133.034597 
L 115.393763 132.871466 
L 115.932522 132.852451 
L 116.201901 132.760377 
L 116.47128 133.014581 
L 116.740659 132.831434 
L 117.548797 132.997568 
L 117.818177 133.193725 
L 118.356935 133.036599 
L 118.626315 133.00057 
L 118.895694 133.356857 
L 119.165073 133.021587 
L 119.703832 132.961539 
L 119.973211 132.987559 
L 120.242591 133.287801 
L 120.51197 133.356857 
L 121.320108 133.127672 
L 121.589487 133.536001 
L 122.667004 133.222749 
L 122.936384 132.97555 
L 123.744522 133.281796 
L 124.013901 133.214742 
L 124.28328 133.430916 
L 125.091418 133.322829 
L 125.360797 133.358858 
L 125.630177 133.593047 
L 126.977073 133.105655 
L 127.246453 133.653095 
L 127.515832 133.490965 
L 128.054591 133.517986 
L 128.32397 133.582038 
L 128.593349 133.399891 
L 128.862728 133.493967 
L 129.401487 133.4109 
L 129.670866 133.844249 
L 130.479004 133.518987 
L 130.748384 133.535 
L 131.017763 133.894289 
L 131.287142 133.991368 
L 131.825901 133.727155 
L 132.09528 133.717147 
L 132.364659 134.008381 
L 132.903418 133.766186 
L 133.172797 133.615065 
L 133.711556 133.624072 
L 133.980935 133.79621 
L 134.789073 133.788204 
L 135.058453 134.076436 
L 135.866591 133.936323 
L 136.13597 133.914305 
L 136.405349 133.567026 
L 136.944108 133.813224 
L 137.752246 133.75818 
L 138.021625 134.023393 
L 138.829763 133.990367 
L 139.099142 134.203538 
L 139.368522 134.015387 
L 139.90728 134.133482 
L 140.446039 133.878276 
L 140.715418 134.107461 
L 141.523556 134.11847 
L 141.792935 134.033401 
L 142.062315 134.281601 
L 143.139832 134.338647 
L 143.409211 134.215548 
L 144.217349 134.234563 
L 144.486728 134.248575 
L 144.756108 134.406702 
L 145.564246 134.214547 
L 145.833625 134.259583 
L 146.103004 134.1555 
L 146.372384 134.271593 
L 146.911142 134.192529 
L 147.180522 134.390689 
L 147.71928 134.385685 
L 147.988659 134.252578 
L 148.258039 134.30562 
L 148.527418 134.543812 
L 148.796797 134.393691 
L 149.874315 134.315629 
L 150.143694 134.444732 
L 150.951832 134.276597 
L 151.490591 134.866072 
L 152.029349 134.959147 
L 154.184384 135.393496 
L 154.992522 135.57264 
L 155.261901 135.749783 
L 155.800659 135.730768 
L 156.339418 135.648702 
L 156.608797 136.172123 
L 156.878177 135.928927 
L 159.57197 135.723762 
L 160.380108 135.945941 
L 160.649487 135.722761 
L 160.918866 135.975965 
L 161.996384 136.021001 
L 162.265763 136.248184 
L 162.535142 136.149105 
L 162.804522 136.169121 
L 163.073901 136.054028 
L 163.34328 136.083051 
L 163.612659 136.237175 
L 164.420797 136.161114 
L 164.690177 135.876885 
L 164.959556 136.054028 
L 165.228935 135.923923 
L 165.767694 135.988976 
L 166.037073 136.291219 
L 166.306453 136.310234 
L 166.575832 136.200146 
L 167.114591 136.235174 
L 167.38397 136.026005 
L 167.922728 136.142099 
L 168.730866 136.213156 
L 169.000246 136.380291 
L 169.808384 136.343261 
L 170.077763 136.509395 
L 170.885901 136.201146 
L 171.15528 136.21816 
L 171.424659 136.108071 
L 171.963418 136.323245 
L 172.771556 136.151106 
L 173.040935 136.303229 
L 173.849073 136.302228 
L 174.118453 136.431332 
L 175.19597 136.430331 
L 175.465349 136.291219 
L 175.734728 136.486376 
L 176.004108 136.375287 
L 176.542866 136.437337 
L 176.812246 136.701549 
L 177.081625 136.55343 
L 177.620384 136.562437 
L 178.697901 136.461356 
L 179.236659 136.444342 
L 179.775418 136.658515 
L 180.583556 136.614479 
L 180.852935 136.362276 
L 181.391694 136.19314 
L 181.930453 136.244181 
L 182.469211 136.492381 
L 183.00797 136.583454 
L 183.277349 136.522405 
L 183.546728 136.221163 
L 183.816108 136.582453 
L 184.624246 136.568442 
L 184.893625 136.6405 
L 185.432384 136.50339 
L 186.240522 136.500387 
L 186.509901 136.670524 
L 186.77928 136.47837 
L 187.318039 136.494382 
L 187.587418 136.579451 
L 187.856797 136.455351 
L 188.664935 136.547425 
L 188.934315 136.821646 
L 190.281211 136.45435 
L 190.550591 136.726569 
L 191.089349 136.626489 
L 192.705625 136.730573 
L 192.975004 136.467361 
L 193.783142 136.489378 
L 194.321901 136.502389 
L 195.938177 136.684536 
L 196.476935 136.878692 
L 197.823832 136.608474 
L 199.440108 136.645504 
L 199.978866 136.737578 
L 200.517625 136.678531 
L 202.942039 136.573446 
L 204.019556 136.862679 
L 205.366453 136.669523 
L 205.905211 136.71456 
L 206.174591 136.673527 
L 206.44397 136.77661 
L 207.790866 136.530411 
L 208.329625 136.743583 
L 209.137763 136.729572 
L 209.676522 136.581453 
L 210.21528 136.629491 
L 210.484659 136.922727 
L 211.023418 136.69054 
L 211.292797 136.725569 
L 211.831556 136.543422 
L 212.639694 136.728571 
L 213.717211 136.545424 
L 214.25597 136.529411 
L 214.525349 136.881694 
L 215.064108 136.554431 
L 215.333487 136.524407 
L 215.602866 136.626489 
L 216.141625 136.643502 
L 216.949763 136.719564 
L 217.219142 136.529411 
L 218.02728 136.679531 
L 218.296659 136.66552 
L 218.566039 136.515399 
L 218.835418 136.672526 
L 220.182315 136.460355 
L 220.451694 136.670524 
L 220.990453 136.601469 
L 221.259832 136.688539 
L 221.529211 136.622486 
L 221.798591 136.721565 
L 222.337349 136.638498 
L 222.606728 136.91372 
L 222.876108 136.856674 
L 223.145487 136.647506 
L 223.953625 136.670524 
L 224.492384 136.781614 
L 225.031142 136.684536 
L 225.300522 136.796626 
L 226.647418 136.743583 
L 226.916797 136.871686 
L 227.455556 136.704552 
L 227.724935 136.775609 
L 227.994315 136.507393 
L 228.533073 136.655512 
L 229.071832 136.663519 
L 229.341211 136.589459 
L 229.610591 136.661517 
L 230.418728 136.585456 
L 230.688108 136.834656 
L 230.957487 136.842663 
L 231.226866 136.712558 
L 231.765625 136.731573 
L 231.765625 136.731573 
" clip-path="url(#p5414a314d9)" style="fill: none; stroke: #1f77b4; stroke-width: 1.5; stroke-linecap: square"></path>
   </g>
   <g id="line2d_26">
    <path d="M 37.812522 72.072523 
L 39.159418 85.157056 
L 40.506315 89.048188 
L 41.853211 89.892868 
L 43.200108 93.903096 
L 44.547004 94.793813 
L 45.893901 94.46655 
L 47.240797 96.515199 
L 48.587694 96.136895 
L 49.934591 96.248985 
L 51.281487 93.420708 
L 52.628384 99.556647 
L 53.97528 98.191549 
L 55.322177 96.471164 
L 56.669073 101.963585 
L 58.01597 102.04465 
L 59.362866 101.232997 
L 60.709763 101.784441 
L 62.056659 100.879713 
L 63.403556 101.757419 
L 64.750453 101.056855 
L 66.097349 103.354705 
L 67.444246 104.063275 
L 68.791142 103.768038 
L 70.138039 102.816271 
L 71.484935 104.424566 
L 72.831832 102.016628 
L 74.178728 104.419562 
L 75.525625 104.519643 
L 76.872522 103.882129 
L 78.219418 105.327293 
L 79.566315 104.468602 
L 80.913211 104.60271 
L 82.260108 105.377333 
L 83.607004 104.610716 
L 84.953901 105.902756 
L 86.300797 105.067083 
L 87.647694 106.352118 
L 88.994591 105.717607 
L 90.341487 105.697591 
L 91.688384 106.114927 
L 93.03528 105.931779 
L 94.382177 105.294266 
L 97.07597 106.174975 
L 98.422866 106.691391 
L 99.769763 106.52826 
L 101.116659 104.249425 
L 102.463556 106.695394 
L 103.810453 106.390148 
L 105.157349 106.935588 
L 106.504246 107.03867 
L 107.851142 106.704401 
L 109.198039 107.055684 
L 110.544935 106.683384 
L 111.891832 107.030664 
L 114.585625 106.91357 
L 115.932522 107.282867 
L 117.279418 106.447194 
L 118.626315 106.762448 
L 119.973211 106.621335 
L 121.320108 107.551083 
L 122.667004 107.440994 
L 124.013901 106.769454 
L 125.360797 107.364933 
L 126.707694 107.288872 
L 128.054591 107.05068 
L 129.401487 106.52826 
L 130.748384 107.449001 
L 132.09528 106.979623 
L 133.442177 107.489033 
L 134.789073 107.861333 
L 136.13597 107.54708 
L 137.482866 107.564093 
L 138.829763 107.798282 
L 144.217349 107.954408 
L 145.564246 107.229824 
L 146.911142 108.004448 
L 148.258039 107.265853 
L 149.604935 107.873342 
L 150.951832 107.706208 
L 152.298728 108.175586 
L 153.645625 109.034277 
L 154.992522 108.772066 
L 157.686315 109.170387 
L 159.033211 107.700203 
L 160.380108 108.952211 
L 161.727004 109.303494 
L 163.073901 109.266464 
L 164.420797 108.981234 
L 165.767694 109.379555 
L 167.114591 109.133357 
L 168.461487 109.440604 
L 176.542866 109.518667 
L 177.889763 109.315503 
L 185.971142 109.359539 
L 187.318039 108.868143 
L 188.664935 109.526673 
L 190.011832 109.514664 
L 191.358728 109.049289 
L 192.705625 109.030274 
L 194.052522 109.601734 
L 195.399418 109.203413 
L 196.746315 109.567706 
L 198.093211 109.018264 
L 200.787004 109.57171 
L 202.133901 109.617747 
L 203.480797 109.339523 
L 204.827694 109.601734 
L 206.174591 109.400572 
L 207.521487 109.629756 
L 208.868384 109.343526 
L 211.562177 109.525673 
L 212.909073 109.443606 
L 214.25597 109.241444 
L 215.602866 109.475632 
L 218.296659 109.626754 
L 225.031142 109.438602 
L 226.378039 109.537682 
L 227.724935 109.103333 
L 229.071832 109.487642 
L 230.418728 109.612743 
L 231.765625 109.576714 
L 231.765625 109.576714 
" clip-path="url(#p5414a314d9)" style="fill: none; stroke: #ff7f0e; stroke-width: 1.5; stroke-linecap: square"></path>
   </g>
   <g id="patch_3">
    <path d="M 36.465625 143.1 
L 36.465625 7.2 
" style="fill: none; stroke: #000000; stroke-width: 0.8; stroke-linejoin: miter; stroke-linecap: square"></path>
   </g>
   <g id="patch_4">
    <path d="M 231.765625 143.1 
L 231.765625 7.2 
" style="fill: none; stroke: #000000; stroke-width: 0.8; stroke-linejoin: miter; stroke-linecap: square"></path>
   </g>
   <g id="patch_5">
    <path d="M 36.465625 143.1 
L 231.765625 143.1 
" style="fill: none; stroke: #000000; stroke-width: 0.8; stroke-linejoin: miter; stroke-linecap: square"></path>
   </g>
   <g id="patch_6">
    <path d="M 36.465625 7.2 
L 231.765625 7.2 
" style="fill: none; stroke: #000000; stroke-width: 0.8; stroke-linejoin: miter; stroke-linecap: square"></path>
   </g>
   <g id="legend_1">
    <g id="patch_7">
     <path d="M 146.996875 44.55625 
L 224.765625 44.55625 
Q 226.765625 44.55625 226.765625 42.55625 
L 226.765625 14.2 
Q 226.765625 12.2 224.765625 12.2 
L 146.996875 12.2 
Q 144.996875 12.2 144.996875 14.2 
L 144.996875 42.55625 
Q 144.996875 44.55625 146.996875 44.55625 
z
" style="fill: #ffffff; opacity: 0.8; stroke: #cccccc; stroke-linejoin: miter"></path>
    </g>
    <g id="line2d_27">
     <path d="M 148.996875 20.298437 
L 158.996875 20.298437 
L 168.996875 20.298437 
" style="fill: none; stroke: #1f77b4; stroke-width: 1.5; stroke-linecap: square"></path>
    </g>
    <g id="text_14">
     <!-- train loss -->
     <g transform="translate(176.996875 23.798437)scale(0.1 -0.1)">
      <defs>
       <path id="DejaVuSans-74" d="M 1172 4494 
L 1172 3500 
L 2356 3500 
L 2356 3053 
L 1172 3053 
L 1172 1153 
Q 1172 725 1289 603 
Q 1406 481 1766 481 
L 2356 481 
L 2356 0 
L 1766 0 
Q 1100 0 847 248 
Q 594 497 594 1153 
L 594 3053 
L 172 3053 
L 172 3500 
L 594 3500 
L 594 4494 
L 1172 4494 
z
" transform="scale(0.015625)"></path>
       <path id="DejaVuSans-72" d="M 2631 2963 
Q 2534 3019 2420 3045 
Q 2306 3072 2169 3072 
Q 1681 3072 1420 2755 
Q 1159 2438 1159 1844 
L 1159 0 
L 581 0 
L 581 3500 
L 1159 3500 
L 1159 2956 
Q 1341 3275 1631 3429 
Q 1922 3584 2338 3584 
Q 2397 3584 2469 3576 
Q 2541 3569 2628 3553 
L 2631 2963 
z
" transform="scale(0.015625)"></path>
       <path id="DejaVuSans-61" d="M 2194 1759 
Q 1497 1759 1228 1600 
Q 959 1441 959 1056 
Q 959 750 1161 570 
Q 1363 391 1709 391 
Q 2188 391 2477 730 
Q 2766 1069 2766 1631 
L 2766 1759 
L 2194 1759 
z
M 3341 1997 
L 3341 0 
L 2766 0 
L 2766 531 
Q 2569 213 2275 61 
Q 1981 -91 1556 -91 
Q 1019 -91 701 211 
Q 384 513 384 1019 
Q 384 1609 779 1909 
Q 1175 2209 1959 2209 
L 2766 2209 
L 2766 2266 
Q 2766 2663 2505 2880 
Q 2244 3097 1772 3097 
Q 1472 3097 1187 3025 
Q 903 2953 641 2809 
L 641 3341 
Q 956 3463 1253 3523 
Q 1550 3584 1831 3584 
Q 2591 3584 2966 3190 
Q 3341 2797 3341 1997 
z
" transform="scale(0.015625)"></path>
       <path id="DejaVuSans-69" d="M 603 3500 
L 1178 3500 
L 1178 0 
L 603 0 
L 603 3500 
z
M 603 4863 
L 1178 4863 
L 1178 4134 
L 603 4134 
L 603 4863 
z
" transform="scale(0.015625)"></path>
       <path id="DejaVuSans-6e" d="M 3513 2113 
L 3513 0 
L 2938 0 
L 2938 2094 
Q 2938 2591 2744 2837 
Q 2550 3084 2163 3084 
Q 1697 3084 1428 2787 
Q 1159 2491 1159 1978 
L 1159 0 
L 581 0 
L 581 3500 
L 1159 3500 
L 1159 2956 
Q 1366 3272 1645 3428 
Q 1925 3584 2291 3584 
Q 2894 3584 3203 3211 
Q 3513 2838 3513 2113 
z
" transform="scale(0.015625)"></path>
       <path id="DejaVuSans-20" transform="scale(0.015625)"></path>
       <path id="DejaVuSans-6c" d="M 603 4863 
L 1178 4863 
L 1178 0 
L 603 0 
L 603 4863 
z
" transform="scale(0.015625)"></path>
       <path id="DejaVuSans-73" d="M 2834 3397 
L 2834 2853 
Q 2591 2978 2328 3040 
Q 2066 3103 1784 3103 
Q 1356 3103 1142 2972 
Q 928 2841 928 2578 
Q 928 2378 1081 2264 
Q 1234 2150 1697 2047 
L 1894 2003 
Q 2506 1872 2764 1633 
Q 3022 1394 3022 966 
Q 3022 478 2636 193 
Q 2250 -91 1575 -91 
Q 1294 -91 989 -36 
Q 684 19 347 128 
L 347 722 
Q 666 556 975 473 
Q 1284 391 1588 391 
Q 1994 391 2212 530 
Q 2431 669 2431 922 
Q 2431 1156 2273 1281 
Q 2116 1406 1581 1522 
L 1381 1569 
Q 847 1681 609 1914 
Q 372 2147 372 2553 
Q 372 3047 722 3315 
Q 1072 3584 1716 3584 
Q 2034 3584 2315 3537 
Q 2597 3491 2834 3397 
z
" transform="scale(0.015625)"></path>
      </defs>
      <use xlink:href="#DejaVuSans-74"></use>
      <use xlink:href="#DejaVuSans-72" x="39.208984"></use>
      <use xlink:href="#DejaVuSans-61" x="80.322266"></use>
      <use xlink:href="#DejaVuSans-69" x="141.601562"></use>
      <use xlink:href="#DejaVuSans-6e" x="169.384766"></use>
      <use xlink:href="#DejaVuSans-20" x="232.763672"></use>
      <use xlink:href="#DejaVuSans-6c" x="264.550781"></use>
      <use xlink:href="#DejaVuSans-6f" x="292.333984"></use>
      <use xlink:href="#DejaVuSans-73" x="353.515625"></use>
      <use xlink:href="#DejaVuSans-73" x="405.615234"></use>
     </g>
    </g>
    <g id="line2d_28">
     <path d="M 148.996875 34.976562 
L 158.996875 34.976562 
L 168.996875 34.976562 
" style="fill: none; stroke: #ff7f0e; stroke-width: 1.5; stroke-linecap: square"></path>
    </g>
    <g id="text_15">
     <!-- test loss -->
     <g transform="translate(176.996875 38.476562)scale(0.1 -0.1)">
      <use xlink:href="#DejaVuSans-74"></use>
      <use xlink:href="#DejaVuSans-65" x="39.208984"></use>
      <use xlink:href="#DejaVuSans-73" x="100.732422"></use>
      <use xlink:href="#DejaVuSans-74" x="152.832031"></use>
      <use xlink:href="#DejaVuSans-20" x="192.041016"></use>
      <use xlink:href="#DejaVuSans-6c" x="223.828125"></use>
      <use xlink:href="#DejaVuSans-6f" x="251.611328"></use>
      <use xlink:href="#DejaVuSans-73" x="312.792969"></use>
      <use xlink:href="#DejaVuSans-73" x="364.892578"></use>
     </g>
    </g>
   </g>
  </g>
 </g>
 <defs>
  <clipPath id="p5414a314d9">
   <rect x="36.465625" y="7.2" width="195.3" height="135.9"></rect>
  </clipPath>
 </defs>
</svg>