<svg xmlns:xlink="http://www.w3.org/1999/xlink" width="238.965625pt" height="180.65625pt" viewBox="0 0 238.965625 180.65625" xmlns="http://www.w3.org/2000/svg" version="1.1" style="width: 100%; height: 100%;">
 <metadata>
  <rdf:rdf xmlns:dc="http://purl.org/dc/elements/1.1/" xmlns:cc="http://creativecommons.org/ns#" xmlns:rdf="http://www.w3.org/1999/02/22-rdf-syntax-ns#">
   <cc:work>
    <dc:type rdf:resource="http://purl.org/dc/dcmitype/StillImage"></dc:type>
    <dc:date>2022-04-28T20:12:47.338819</dc:date>
    <dc:format>image/svg+xml</dc:format>
    <dc:creator>
     <cc:agent>
      <dc:title>Matplotlib v3.5.1, https://matplotlib.org/</dc:title>
     </cc:agent>
    </dc:creator>
   </cc:work>
  </rdf:rdf>
 </metadata>
 <defs>
  <style type="text/css">*{stroke-linejoin: round; stroke-linecap: butt}</style>
 </defs>
 <g id="figure_1">
  <g id="patch_1">
   <path d="M 0 180.65625 
L 238.965625 180.65625 
L 238.965625 0 
L 0 0 
L 0 180.65625 
z
" style="fill: none"></path>
  </g>
  <g id="axes_1">
   <g id="patch_2">
    <path d="M 36.465625 143.1 
L 231.765625 143.1 
L 231.765625 7.2 
L 36.465625 7.2 
z
" style="fill: #ffffff"></path>
   </g>
   <g id="matplotlib.axis_1">
    <g id="xtick_1">
     <g id="line2d_1">
      <path d="M 36.465625 143.1 
L 36.465625 7.2 
" clip-path="url(#pc57eb20df7)" style="fill: none; stroke: #b0b0b0; stroke-width: 0.8; stroke-linecap: square"></path>
     </g>
     <g id="line2d_2">
      <defs>
       <path id="m306d55df98" d="M 0 0 
L 0 3.5 
" style="stroke: #000000; stroke-width: 0.8"></path>
      </defs>
      <g>
       <use xlink:href="#m306d55df98" x="36.465625" y="143.1" style="stroke: #000000; stroke-width: 0.8"></use>
      </g>
     </g>
     <g id="text_1">
      <!-- 0 -->
      <g transform="translate(33.284375 157.698438)scale(0.1 -0.1)">
       <defs>
        <path id="DejaVuSans-30" d="M 2034 4250 
Q 1547 4250 1301 3770 
Q 1056 3291 1056 2328 
Q 1056 1369 1301 889 
Q 1547 409 2034 409 
Q 2525 409 2770 889 
Q 3016 1369 3016 2328 
Q 3016 3291 2770 3770 
Q 2525 4250 2034 4250 
z
M 2034 4750 
Q 2819 4750 3233 4129 
Q 3647 3509 3647 2328 
Q 3647 1150 3233 529 
Q 2819 -91 2034 -91 
Q 1250 -91 836 529 
Q 422 1150 422 2328 
Q 422 3509 836 4129 
Q 1250 4750 2034 4750 
z
" transform="scale(0.015625)"></path>
       </defs>
       <use xlink:href="#DejaVuSans-30"></use>
      </g>
     </g>
    </g>
    <g id="xtick_2">
     <g id="line2d_3">
      <path d="M 70.138039 143.1 
L 70.138039 7.2 
" clip-path="url(#pc57eb20df7)" style="fill: none; stroke: #b0b0b0; stroke-width: 0.8; stroke-linecap: square"></path>
     </g>
     <g id="line2d_4">
      <g>
       <use xlink:href="#m306d55df98" x="70.138039" y="143.1" style="stroke: #000000; stroke-width: 0.8"></use>
      </g>
     </g>
     <g id="text_2">
      <!-- 25 -->
      <g transform="translate(63.775539 157.698438)scale(0.1 -0.1)">
       <defs>
        <path id="DejaVuSans-32" d="M 1228 531 
L 3431 531 
L 3431 0 
L 469 0 
L 469 531 
Q 828 903 1448 1529 
Q 2069 2156 2228 2338 
Q 2531 2678 2651 2914 
Q 2772 3150 2772 3378 
Q 2772 3750 2511 3984 
Q 2250 4219 1831 4219 
Q 1534 4219 1204 4116 
Q 875 4013 500 3803 
L 500 4441 
Q 881 4594 1212 4672 
Q 1544 4750 1819 4750 
Q 2544 4750 2975 4387 
Q 3406 4025 3406 3419 
Q 3406 3131 3298 2873 
Q 3191 2616 2906 2266 
Q 2828 2175 2409 1742 
Q 1991 1309 1228 531 
z
" transform="scale(0.015625)"></path>
        <path id="DejaVuSans-35" d="M 691 4666 
L 3169 4666 
L 3169 4134 
L 1269 4134 
L 1269 2991 
Q 1406 3038 1543 3061 
Q 1681 3084 1819 3084 
Q 2600 3084 3056 2656 
Q 3513 2228 3513 1497 
Q 3513 744 3044 326 
Q 2575 -91 1722 -91 
Q 1428 -91 1123 -41 
Q 819 9 494 109 
L 494 744 
Q 775 591 1075 516 
Q 1375 441 1709 441 
Q 2250 441 2565 725 
Q 2881 1009 2881 1497 
Q 2881 1984 2565 2268 
Q 2250 2553 1709 2553 
Q 1456 2553 1204 2497 
Q 953 2441 691 2322 
L 691 4666 
z
" transform="scale(0.015625)"></path>
       </defs>
       <use xlink:href="#DejaVuSans-32"></use>
       <use xlink:href="#DejaVuSans-35" x="63.623047"></use>
      </g>
     </g>
    </g>
    <g id="xtick_3">
     <g id="line2d_5">
      <path d="M 103.810453 143.1 
L 103.810453 7.2 
" clip-path="url(#pc57eb20df7)" style="fill: none; stroke: #b0b0b0; stroke-width: 0.8; stroke-linecap: square"></path>
     </g>
     <g id="line2d_6">
      <g>
       <use xlink:href="#m306d55df98" x="103.810453" y="143.1" style="stroke: #000000; stroke-width: 0.8"></use>
      </g>
     </g>
     <g id="text_3">
      <!-- 50 -->
      <g transform="translate(97.447953 157.698438)scale(0.1 -0.1)">
       <use xlink:href="#DejaVuSans-35"></use>
       <use xlink:href="#DejaVuSans-30" x="63.623047"></use>
      </g>
     </g>
    </g>
    <g id="xtick_4">
     <g id="line2d_7">
      <path d="M 137.482866 143.1 
L 137.482866 7.2 
" clip-path="url(#pc57eb20df7)" style="fill: none; stroke: #b0b0b0; stroke-width: 0.8; stroke-linecap: square"></path>
     </g>
     <g id="line2d_8">
      <g>
       <use xlink:href="#m306d55df98" x="137.482866" y="143.1" style="stroke: #000000; stroke-width: 0.8"></use>
      </g>
     </g>
     <g id="text_4">
      <!-- 75 -->
      <g transform="translate(131.120366 157.698438)scale(0.1 -0.1)">
       <defs>
        <path id="DejaVuSans-37" d="M 525 4666 
L 3525 4666 
L 3525 4397 
L 1831 0 
L 1172 0 
L 2766 4134 
L 525 4134 
L 525 4666 
z
" transform="scale(0.015625)"></path>
       </defs>
       <use xlink:href="#DejaVuSans-37"></use>
       <use xlink:href="#DejaVuSans-35" x="63.623047"></use>
      </g>
     </g>
    </g>
    <g id="xtick_5">
     <g id="line2d_9">
      <path d="M 171.15528 143.1 
L 171.15528 7.2 
" clip-path="url(#pc57eb20df7)" style="fill: none; stroke: #b0b0b0; stroke-width: 0.8; stroke-linecap: square"></path>
     </g>
     <g id="line2d_10">
      <g>
       <use xlink:href="#m306d55df98" x="171.15528" y="143.1" style="stroke: #000000; stroke-width: 0.8"></use>
      </g>
     </g>
     <g id="text_5">
      <!-- 100 -->
      <g transform="translate(161.61153 157.698438)scale(0.1 -0.1)">
       <defs>
        <path id="DejaVuSans-31" d="M 794 531 
L 1825 531 
L 1825 4091 
L 703 3866 
L 703 4441 
L 1819 4666 
L 2450 4666 
L 2450 531 
L 3481 531 
L 3481 0 
L 794 0 
L 794 531 
z
" transform="scale(0.015625)"></path>
       </defs>
       <use xlink:href="#DejaVuSans-31"></use>
       <use xlink:href="#DejaVuSans-30" x="63.623047"></use>
       <use xlink:href="#DejaVuSans-30" x="127.246094"></use>
      </g>
     </g>
    </g>
    <g id="xtick_6">
     <g id="line2d_11">
      <path d="M 204.827694 143.1 
L 204.827694 7.2 
" clip-path="url(#pc57eb20df7)" style="fill: none; stroke: #b0b0b0; stroke-width: 0.8; stroke-linecap: square"></path>
     </g>
     <g id="line2d_12">
      <g>
       <use xlink:href="#m306d55df98" x="204.827694" y="143.1" style="stroke: #000000; stroke-width: 0.8"></use>
      </g>
     </g>
     <g id="text_6">
      <!-- 125 -->
      <g transform="translate(195.283944 157.698438)scale(0.1 -0.1)">
       <use xlink:href="#DejaVuSans-31"></use>
       <use xlink:href="#DejaVuSans-32" x="63.623047"></use>
       <use xlink:href="#DejaVuSans-35" x="127.246094"></use>
      </g>
     </g>
    </g>
    <g id="text_7">
     <!-- epoch -->
     <g transform="translate(118.8875 171.376563)scale(0.1 -0.1)">
      <defs>
       <path id="DejaVuSans-65" d="M 3597 1894 
L 3597 1613 
L 953 1613 
Q 991 1019 1311 708 
Q 1631 397 2203 397 
Q 2534 397 2845 478 
Q 3156 559 3463 722 
L 3463 178 
Q 3153 47 2828 -22 
Q 2503 -91 2169 -91 
Q 1331 -91 842 396 
Q 353 884 353 1716 
Q 353 2575 817 3079 
Q 1281 3584 2069 3584 
Q 2775 3584 3186 3129 
Q 3597 2675 3597 1894 
z
M 3022 2063 
Q 3016 2534 2758 2815 
Q 2500 3097 2075 3097 
Q 1594 3097 1305 2825 
Q 1016 2553 972 2059 
L 3022 2063 
z
" transform="scale(0.015625)"></path>
       <path id="DejaVuSans-70" d="M 1159 525 
L 1159 -1331 
L 581 -1331 
L 581 3500 
L 1159 3500 
L 1159 2969 
Q 1341 3281 1617 3432 
Q 1894 3584 2278 3584 
Q 2916 3584 3314 3078 
Q 3713 2572 3713 1747 
Q 3713 922 3314 415 
Q 2916 -91 2278 -91 
Q 1894 -91 1617 61 
Q 1341 213 1159 525 
z
M 3116 1747 
Q 3116 2381 2855 2742 
Q 2594 3103 2138 3103 
Q 1681 3103 1420 2742 
Q 1159 2381 1159 1747 
Q 1159 1113 1420 752 
Q 1681 391 2138 391 
Q 2594 391 2855 752 
Q 3116 1113 3116 1747 
z
" transform="scale(0.015625)"></path>
       <path id="DejaVuSans-6f" d="M 1959 3097 
Q 1497 3097 1228 2736 
Q 959 2375 959 1747 
Q 959 1119 1226 758 
Q 1494 397 1959 397 
Q 2419 397 2687 759 
Q 2956 1122 2956 1747 
Q 2956 2369 2687 2733 
Q 2419 3097 1959 3097 
z
M 1959 3584 
Q 2709 3584 3137 3096 
Q 3566 2609 3566 1747 
Q 3566 888 3137 398 
Q 2709 -91 1959 -91 
Q 1206 -91 779 398 
Q 353 888 353 1747 
Q 353 2609 779 3096 
Q 1206 3584 1959 3584 
z
" transform="scale(0.015625)"></path>
       <path id="DejaVuSans-63" d="M 3122 3366 
L 3122 2828 
Q 2878 2963 2633 3030 
Q 2388 3097 2138 3097 
Q 1578 3097 1268 2742 
Q 959 2388 959 1747 
Q 959 1106 1268 751 
Q 1578 397 2138 397 
Q 2388 397 2633 464 
Q 2878 531 3122 666 
L 3122 134 
Q 2881 22 2623 -34 
Q 2366 -91 2075 -91 
Q 1284 -91 818 406 
Q 353 903 353 1747 
Q 353 2603 823 3093 
Q 1294 3584 2113 3584 
Q 2378 3584 2631 3529 
Q 2884 3475 3122 3366 
z
" transform="scale(0.015625)"></path>
       <path id="DejaVuSans-68" d="M 3513 2113 
L 3513 0 
L 2938 0 
L 2938 2094 
Q 2938 2591 2744 2837 
Q 2550 3084 2163 3084 
Q 1697 3084 1428 2787 
Q 1159 2491 1159 1978 
L 1159 0 
L 581 0 
L 581 4863 
L 1159 4863 
L 1159 2956 
Q 1366 3272 1645 3428 
Q 1925 3584 2291 3584 
Q 2894 3584 3203 3211 
Q 3513 2838 3513 2113 
z
" transform="scale(0.015625)"></path>
      </defs>
      <use xlink:href="#DejaVuSans-65"></use>
      <use xlink:href="#DejaVuSans-70" x="61.523438"></use>
      <use xlink:href="#DejaVuSans-6f" x="125"></use>
      <use xlink:href="#DejaVuSans-63" x="186.181641"></use>
      <use xlink:href="#DejaVuSans-68" x="241.162109"></use>
     </g>
    </g>
   </g>
   <g id="matplotlib.axis_2">
    <g id="ytick_1">
     <g id="line2d_13">
      <path d="M 36.465625 140.476739 
L 231.765625 140.476739 
" clip-path="url(#pc57eb20df7)" style="fill: none; stroke: #b0b0b0; stroke-width: 0.8; stroke-linecap: square"></path>
     </g>
     <g id="line2d_14">
      <defs>
       <path id="m26d9ec2816" d="M 0 0 
L -3.5 0 
" style="stroke: #000000; stroke-width: 0.8"></path>
      </defs>
      <g>
       <use xlink:href="#m26d9ec2816" x="36.465625" y="140.476739" style="stroke: #000000; stroke-width: 0.8"></use>
      </g>
     </g>
     <g id="text_8">
      <!-- 0.0 -->
      <g transform="translate(13.5625 144.275958)scale(0.1 -0.1)">
       <defs>
        <path id="DejaVuSans-2e" d="M 684 794 
L 1344 794 
L 1344 0 
L 684 0 
L 684 794 
z
" transform="scale(0.015625)"></path>
       </defs>
       <use xlink:href="#DejaVuSans-30"></use>
       <use xlink:href="#DejaVuSans-2e" x="63.623047"></use>
       <use xlink:href="#DejaVuSans-30" x="95.410156"></use>
      </g>
     </g>
    </g>
    <g id="ytick_2">
     <g id="line2d_15">
      <path d="M 36.465625 116.210485 
L 231.765625 116.210485 
" clip-path="url(#pc57eb20df7)" style="fill: none; stroke: #b0b0b0; stroke-width: 0.8; stroke-linecap: square"></path>
     </g>
     <g id="line2d_16">
      <g>
       <use xlink:href="#m26d9ec2816" x="36.465625" y="116.210485" style="stroke: #000000; stroke-width: 0.8"></use>
      </g>
     </g>
     <g id="text_9">
      <!-- 2.5 -->
      <g transform="translate(13.5625 120.009704)scale(0.1 -0.1)">
       <use xlink:href="#DejaVuSans-32"></use>
       <use xlink:href="#DejaVuSans-2e" x="63.623047"></use>
       <use xlink:href="#DejaVuSans-35" x="95.410156"></use>
      </g>
     </g>
    </g>
    <g id="ytick_3">
     <g id="line2d_17">
      <path d="M 36.465625 91.944231 
L 231.765625 91.944231 
" clip-path="url(#pc57eb20df7)" style="fill: none; stroke: #b0b0b0; stroke-width: 0.8; stroke-linecap: square"></path>
     </g>
     <g id="line2d_18">
      <g>
       <use xlink:href="#m26d9ec2816" x="36.465625" y="91.944231" style="stroke: #000000; stroke-width: 0.8"></use>
      </g>
     </g>
     <g id="text_10">
      <!-- 5.0 -->
      <g transform="translate(13.5625 95.74345)scale(0.1 -0.1)">
       <use xlink:href="#DejaVuSans-35"></use>
       <use xlink:href="#DejaVuSans-2e" x="63.623047"></use>
       <use xlink:href="#DejaVuSans-30" x="95.410156"></use>
      </g>
     </g>
    </g>
    <g id="ytick_4">
     <g id="line2d_19">
      <path d="M 36.465625 67.677978 
L 231.765625 67.677978 
" clip-path="url(#pc57eb20df7)" style="fill: none; stroke: #b0b0b0; stroke-width: 0.8; stroke-linecap: square"></path>
     </g>
     <g id="line2d_20">
      <g>
       <use xlink:href="#m26d9ec2816" x="36.465625" y="67.677978" style="stroke: #000000; stroke-width: 0.8"></use>
      </g>
     </g>
     <g id="text_11">
      <!-- 7.5 -->
      <g transform="translate(13.5625 71.477196)scale(0.1 -0.1)">
       <use xlink:href="#DejaVuSans-37"></use>
       <use xlink:href="#DejaVuSans-2e" x="63.623047"></use>
       <use xlink:href="#DejaVuSans-35" x="95.410156"></use>
      </g>
     </g>
    </g>
    <g id="ytick_5">
     <g id="line2d_21">
      <path d="M 36.465625 43.411724 
L 231.765625 43.411724 
" clip-path="url(#pc57eb20df7)" style="fill: none; stroke: #b0b0b0; stroke-width: 0.8; stroke-linecap: square"></path>
     </g>
     <g id="line2d_22">
      <g>
       <use xlink:href="#m26d9ec2816" x="36.465625" y="43.411724" style="stroke: #000000; stroke-width: 0.8"></use>
      </g>
     </g>
     <g id="text_12">
      <!-- 10.0 -->
      <g transform="translate(7.2 47.210942)scale(0.1 -0.1)">
       <use xlink:href="#DejaVuSans-31"></use>
       <use xlink:href="#DejaVuSans-30" x="63.623047"></use>
       <use xlink:href="#DejaVuSans-2e" x="127.246094"></use>
       <use xlink:href="#DejaVuSans-30" x="159.033203"></use>
      </g>
     </g>
    </g>
    <g id="ytick_6">
     <g id="line2d_23">
      <path d="M 36.465625 19.14547 
L 231.765625 19.14547 
" clip-path="url(#pc57eb20df7)" style="fill: none; stroke: #b0b0b0; stroke-width: 0.8; stroke-linecap: square"></path>
     </g>
     <g id="line2d_24">
      <g>
       <use xlink:href="#m26d9ec2816" x="36.465625" y="19.14547" style="stroke: #000000; stroke-width: 0.8"></use>
      </g>
     </g>
     <g id="text_13">
      <!-- 12.5 -->
      <g transform="translate(7.2 22.944688)scale(0.1 -0.1)">
       <use xlink:href="#DejaVuSans-31"></use>
       <use xlink:href="#DejaVuSans-32" x="63.623047"></use>
       <use xlink:href="#DejaVuSans-2e" x="127.246094"></use>
       <use xlink:href="#DejaVuSans-35" x="159.033203"></use>
      </g>
     </g>
    </g>
   </g>
   <g id="line2d_25">
    <path d="M 36.735004 13.377273 
L 37.273763 39.574661 
L 37.812522 51.798505 
L 38.081901 69.748529 
L 38.890039 75.519684 
L 39.159418 76.850591 
L 39.428797 84.857694 
L 39.698177 83.784118 
L 40.506315 85.118315 
L 40.775694 89.11062 
L 41.045073 89.840013 
L 41.314453 89.615867 
L 41.583832 90.319221 
L 41.853211 90.630491 
L 42.122591 94.351533 
L 42.39197 94.031603 
L 42.661349 94.431994 
L 42.930728 93.964144 
L 43.200108 93.923974 
L 43.469487 97.557594 
L 43.738866 96.303982 
L 44.008246 96.545002 
L 44.277625 96.191104 
L 44.547004 96.064678 
L 44.816384 98.663703 
L 45.085763 98.427691 
L 45.355142 97.648695 
L 45.624522 97.623873 
L 45.893901 97.370768 
L 46.16328 100.026204 
L 46.702039 99.085783 
L 46.971418 98.857241 
L 47.240797 98.855486 
L 47.510177 100.894245 
L 47.779556 100.895018 
L 48.048935 100.527064 
L 48.318315 99.719312 
L 48.587694 99.783873 
L 48.857073 101.474497 
L 49.126453 100.823273 
L 49.665211 100.482339 
L 49.934591 100.571931 
L 50.20397 104.687727 
L 50.473349 104.322137 
L 50.742728 104.492525 
L 51.012108 103.999851 
L 51.281487 103.987306 
L 51.550866 106.698132 
L 51.820246 106.866181 
L 52.628384 106.483353 
L 52.897763 110.343462 
L 53.436522 109.444179 
L 53.705901 109.394419 
L 53.97528 109.488496 
L 54.244659 111.860946 
L 54.783418 111.685232 
L 55.052797 111.622758 
L 55.322177 111.698789 
L 55.591556 114.503415 
L 55.860935 113.690185 
L 56.130315 113.978312 
L 56.399694 113.898376 
L 56.669073 113.950407 
L 56.938453 116.123825 
L 57.207832 115.902779 
L 58.01597 115.698008 
L 58.285349 117.906795 
L 58.554728 117.565284 
L 58.824108 117.532175 
L 59.362866 117.147449 
L 59.632246 118.191174 
L 59.901625 118.345479 
L 60.171004 118.36832 
L 60.709763 118.265932 
L 60.979142 121.173327 
L 61.517901 120.023415 
L 62.056659 119.813042 
L 62.326039 121.02837 
L 62.864797 121.106343 
L 63.403556 120.73911 
L 63.672935 122.353309 
L 63.942315 122.377506 
L 64.750453 121.848726 
L 65.019832 122.966685 
L 65.558591 122.810153 
L 65.82797 122.629134 
L 66.097349 122.6317 
L 66.366728 124.249951 
L 66.636108 123.733125 
L 66.905487 123.825418 
L 67.444246 123.521076 
L 67.713625 124.937141 
L 67.983004 124.518445 
L 68.791142 124.135087 
L 69.060522 124.72125 
L 69.59928 124.89582 
L 70.138039 124.829662 
L 70.407418 125.832521 
L 70.676797 125.371627 
L 70.946177 125.26597 
L 71.215556 125.42471 
L 71.484935 125.423124 
L 71.754315 126.572276 
L 72.562453 126.163398 
L 72.831832 126.186038 
L 73.370591 126.635156 
L 74.178728 126.478476 
L 74.717487 127.448011 
L 75.525625 126.789874 
L 75.795004 127.60146 
L 76.064384 127.35317 
L 76.872522 127.220523 
L 77.141901 127.915949 
L 77.680659 127.904309 
L 78.219418 127.841982 
L 78.488797 128.211147 
L 78.758177 128.223954 
L 79.027556 128.107596 
L 79.566315 128.166913 
L 79.835694 128.993061 
L 81.182591 128.453197 
L 81.45197 128.822886 
L 81.990728 128.874692 
L 82.260108 128.670967 
L 82.529487 129.175036 
L 82.798866 129.253334 
L 83.068246 129.129814 
L 83.337625 129.222264 
L 83.607004 129.094747 
L 84.415142 129.431844 
L 84.684522 129.32477 
L 84.953901 129.373244 
L 85.22328 130.002921 
L 85.762039 129.783159 
L 86.839556 129.8439 
L 87.378315 129.928329 
L 87.647694 129.824808 
L 87.917073 130.777021 
L 88.455832 130.103734 
L 88.725211 130.177295 
L 88.994591 130.086905 
L 89.26397 130.406605 
L 89.802728 130.541816 
L 90.072108 130.581263 
L 90.341487 130.438653 
L 90.610866 130.426129 
L 90.880246 130.621138 
L 91.149625 130.442636 
L 91.957763 130.715707 
L 92.227142 130.510875 
L 94.651556 130.73452 
L 94.920935 130.638767 
L 95.729073 130.785787 
L 95.998453 131.125286 
L 96.537211 130.889329 
L 97.07597 130.879414 
L 97.345349 131.482904 
L 97.884108 131.452454 
L 98.422866 131.327708 
L 98.692246 131.923778 
L 99.500384 131.61422 
L 99.769763 131.523783 
L 100.308522 131.634831 
L 101.116659 131.326013 
L 101.386039 131.791378 
L 101.655418 131.592215 
L 102.463556 131.607781 
L 103.002315 132.090703 
L 103.810453 131.722302 
L 104.349211 131.826932 
L 104.88797 131.836004 
L 105.426728 131.815667 
L 105.696108 132.031072 
L 106.504246 132.026645 
L 106.773625 132.160074 
L 107.043004 132.057504 
L 107.312384 132.17578 
L 107.581763 132.033533 
L 107.851142 132.040501 
L 108.120522 132.87374 
L 108.389901 132.577116 
L 108.928659 132.50187 
L 109.467418 132.390639 
L 109.736797 132.532226 
L 110.275556 132.440838 
L 111.083694 132.645803 
L 111.622453 132.393041 
L 111.891832 132.464731 
L 112.161211 132.692703 
L 112.69997 132.749723 
L 113.508108 132.527149 
L 114.046866 132.775537 
L 114.585625 132.687726 
L 114.855004 132.896413 
L 115.393763 132.65985 
L 115.663142 132.704565 
L 115.932522 132.57511 
L 116.47128 133.002423 
L 117.548797 132.807027 
L 117.818177 133.021591 
L 118.087556 132.874755 
L 118.626315 132.804078 
L 118.895694 133.27328 
L 119.165073 133.076253 
L 119.973211 133.005047 
L 120.242591 133.229959 
L 120.781349 133.174606 
L 121.320108 133.097011 
L 121.589487 133.829351 
L 122.128246 133.341986 
L 124.013901 133.284996 
L 124.28328 133.591727 
L 125.360797 133.381154 
L 125.630177 133.601441 
L 126.438315 133.522757 
L 126.707694 133.470715 
L 126.977073 133.619644 
L 127.785211 133.519823 
L 128.054591 133.532282 
L 128.593349 133.771689 
L 129.401487 133.51931 
L 129.670866 133.857036 
L 129.940246 133.668755 
L 130.209625 133.759676 
L 130.479004 133.602153 
L 130.748384 133.66727 
L 131.017763 134.109585 
L 132.09528 133.639012 
L 132.364659 133.792676 
L 132.634039 133.5891 
L 134.789073 133.660686 
L 135.058453 134.202559 
L 135.597211 133.823322 
L 136.405349 133.931683 
L 136.674728 134.074726 
L 137.752246 133.787265 
L 138.021625 133.991279 
L 138.560384 133.952892 
L 138.829763 133.977884 
L 139.368522 133.62037 
L 139.637901 133.753569 
L 140.176659 133.758758 
L 140.446039 134.225995 
L 140.715418 134.026994 
L 141.254177 133.991103 
L 141.523556 134.010836 
L 141.792935 134.311033 
L 142.062315 134.036945 
L 142.601073 133.948062 
L 142.870453 133.959995 
L 143.139832 134.112691 
L 143.409211 134.007068 
L 146.103004 134.310941 
L 146.641763 134.348105 
L 146.911142 134.350465 
L 147.449901 134.059895 
L 147.71928 134.15733 
L 148.258039 134.103638 
L 148.527418 134.468831 
L 148.796797 134.255314 
L 149.604935 134.28453 
L 149.874315 134.164983 
L 150.143694 134.303483 
L 150.682453 134.144956 
L 150.951832 134.257073 
L 151.221211 134.172633 
L 152.298728 134.780329 
L 152.568108 135.240009 
L 152.837487 135.136768 
L 153.376246 135.20092 
L 153.645625 135.162873 
L 153.915004 135.273008 
L 154.184384 135.117287 
L 154.723142 135.329669 
L 156.070039 135.593975 
L 156.339418 135.554917 
L 156.608797 135.347256 
L 157.147556 135.538289 
L 157.955694 135.360374 
L 158.225073 135.652928 
L 159.033211 135.820972 
L 159.302591 135.444182 
L 160.380108 135.736088 
L 160.649487 135.649414 
L 161.996384 136.131917 
L 162.535142 135.869745 
L 164.420797 136.075252 
L 164.690177 135.876015 
L 164.959556 136.094968 
L 165.228935 135.977353 
L 165.767694 136.088654 
L 166.037073 135.802562 
L 167.653349 136.221832 
L 168.192108 136.144999 
L 169.808384 136.150152 
L 170.077763 136.221059 
L 170.347142 136.082663 
L 171.15528 136.123175 
L 171.963418 135.912905 
L 172.771556 136.381976 
L 173.310315 136.153475 
L 173.849073 136.161075 
L 174.118453 136.42772 
L 174.926591 136.34779 
L 175.465349 136.141472 
L 175.734728 136.281898 
L 176.273487 136.225786 
L 176.542866 136.288403 
L 176.812246 136.569869 
L 177.889763 136.325981 
L 178.159142 136.499935 
L 178.697901 136.45437 
L 179.236659 136.32865 
L 179.775418 136.431011 
L 180.044797 136.359518 
L 180.583556 136.363539 
L 180.852935 135.974328 
L 181.122315 136.268677 
L 181.930453 136.369995 
L 182.199832 136.143122 
L 182.738591 136.271192 
L 183.277349 136.338372 
L 183.546728 136.57834 
L 183.816108 136.659636 
L 184.354866 136.383698 
L 184.624246 136.377492 
L 184.893625 136.809518 
L 185.163004 136.519151 
L 185.432384 136.530232 
L 185.701763 136.402928 
L 185.971142 136.415196 
L 186.509901 136.128964 
L 187.856797 136.59438 
L 190.011832 136.481455 
L 190.281211 136.714748 
L 190.81997 136.68015 
L 191.358728 136.615976 
L 191.628108 136.42639 
L 192.436246 136.492997 
L 192.705625 136.431287 
L 192.975004 136.598962 
L 193.513763 136.569003 
L 194.052522 136.516239 
L 194.59128 136.607724 
L 196.207556 136.318654 
L 197.285073 136.57982 
L 198.093211 136.489751 
L 199.440108 136.606275 
L 199.978866 136.498655 
L 201.864522 136.555813 
L 202.672659 136.507203 
L 202.942039 136.584455 
L 203.480797 136.465253 
L 203.750177 136.736155 
L 204.019556 136.506368 
L 204.558315 136.557821 
L 204.827694 136.575315 
L 205.097073 136.326539 
L 206.982728 136.735898 
L 207.521487 136.660565 
L 207.790866 136.85996 
L 208.060246 136.655488 
L 208.599004 136.535028 
L 208.868384 136.628009 
L 209.137763 136.465591 
L 210.484659 136.562236 
L 210.754039 136.654961 
L 211.292797 136.620237 
L 214.794728 136.697519 
L 215.333487 136.578174 
L 217.488522 136.862494 
L 217.757901 136.676454 
L 218.296659 136.593686 
L 218.566039 136.771289 
L 219.104797 136.569798 
L 219.912935 136.585122 
L 220.721073 136.638702 
L 221.529211 136.482059 
L 222.06797 136.566098 
L 222.337349 136.618948 
L 222.606728 136.520627 
L 223.414866 136.584647 
L 223.953625 136.523177 
L 224.223004 136.676641 
L 224.761763 136.648926 
L 225.031142 136.617333 
L 225.300522 136.779032 
L 226.108659 136.611223 
L 226.378039 136.611371 
L 226.647418 136.922727 
L 226.916797 136.90198 
L 227.186177 136.768569 
L 227.724935 136.757687 
L 227.994315 136.531904 
L 229.071832 136.616901 
L 229.341211 136.74037 
L 230.418728 136.649263 
L 230.688108 136.83008 
L 230.957487 136.630154 
L 231.226866 136.671176 
L 231.765625 136.628286 
L 231.765625 136.628286 
" clip-path="url(#pc57eb20df7)" style="fill: none; stroke: #1f77b4; stroke-width: 1.5; stroke-linecap: square"></path>
   </g>
   <g id="line2d_26">
    <path d="M 37.812522 77.906357 
L 40.506315 89.475487 
L 41.853211 92.244722 
L 43.200108 92.766632 
L 44.547004 92.041419 
L 45.893901 93.719976 
L 47.240797 93.329633 
L 48.587694 92.715808 
L 49.934591 93.742604 
L 51.281487 95.314754 
L 52.628384 98.373385 
L 53.97528 98.042361 
L 55.322177 100.349453 
L 56.669073 100.944681 
L 58.01597 102.342883 
L 59.362866 102.19028 
L 60.709763 104.013477 
L 62.056659 104.144468 
L 70.138039 106.345592 
L 71.484935 106.443835 
L 72.831832 106.762058 
L 74.178728 106.593396 
L 75.525625 107.44288 
L 76.872522 107.10055 
L 79.566315 107.99023 
L 80.913211 107.626859 
L 82.260108 107.940368 
L 83.607004 108.484966 
L 84.953901 108.211318 
L 87.647694 108.30368 
L 88.994591 108.717887 
L 90.341487 108.443956 
L 91.688384 108.397374 
L 93.03528 108.985803 
L 94.382177 108.77459 
L 97.07597 109.00135 
L 98.422866 108.865219 
L 99.769763 109.476892 
L 101.116659 109.059856 
L 102.463556 109.398839 
L 107.851142 109.421493 
L 111.891832 109.760601 
L 122.667004 110.299518 
L 124.013901 110.196524 
L 125.360797 110.480987 
L 129.401487 110.523712 
L 130.748384 110.198051 
L 132.09528 110.77248 
L 133.442177 110.508301 
L 134.789073 110.704731 
L 137.482866 110.572451 
L 138.829763 110.724796 
L 142.870453 110.647145 
L 144.217349 110.655492 
L 145.564246 110.483583 
L 146.911142 110.863479 
L 148.258039 110.743994 
L 149.604935 110.94696 
L 150.951832 110.939126 
L 152.298728 111.577742 
L 156.339418 111.997574 
L 185.971142 112.324392 
L 187.318039 112.189297 
L 188.664935 112.340728 
L 192.705625 112.359089 
L 203.480797 112.399988 
L 206.174591 112.493188 
L 207.521487 112.368364 
L 219.643556 112.480957 
L 220.990453 112.397164 
L 223.684246 112.443782 
L 229.071832 112.424831 
L 231.765625 112.45147 
L 231.765625 112.45147 
" clip-path="url(#pc57eb20df7)" style="fill: none; stroke: #ff7f0e; stroke-width: 1.5; stroke-linecap: square"></path>
   </g>
   <g id="patch_3">
    <path d="M 36.465625 143.1 
L 36.465625 7.2 
" style="fill: none; stroke: #000000; stroke-width: 0.8; stroke-linejoin: miter; stroke-linecap: square"></path>
   </g>
   <g id="patch_4">
    <path d="M 231.765625 143.1 
L 231.765625 7.2 
" style="fill: none; stroke: #000000; stroke-width: 0.8; stroke-linejoin: miter; stroke-linecap: square"></path>
   </g>
   <g id="patch_5">
    <path d="M 36.465625 143.1 
L 231.765625 143.1 
" style="fill: none; stroke: #000000; stroke-width: 0.8; stroke-linejoin: miter; stroke-linecap: square"></path>
   </g>
   <g id="patch_6">
    <path d="M 36.465625 7.2 
L 231.765625 7.2 
" style="fill: none; stroke: #000000; stroke-width: 0.8; stroke-linejoin: miter; stroke-linecap: square"></path>
   </g>
   <g id="legend_1">
    <g id="patch_7">
     <path d="M 146.996875 44.55625 
L 224.765625 44.55625 
Q 226.765625 44.55625 226.765625 42.55625 
L 226.765625 14.2 
Q 226.765625 12.2 224.765625 12.2 
L 146.996875 12.2 
Q 144.996875 12.2 144.996875 14.2 
L 144.996875 42.55625 
Q 144.996875 44.55625 146.996875 44.55625 
z
" style="fill: #ffffff; opacity: 0.8; stroke: #cccccc; stroke-linejoin: miter"></path>
    </g>
    <g id="line2d_27">
     <path d="M 148.996875 20.298437 
L 158.996875 20.298437 
L 168.996875 20.298437 
" style="fill: none; stroke: #1f77b4; stroke-width: 1.5; stroke-linecap: square"></path>
    </g>
    <g id="text_14">
     <!-- train loss -->
     <g transform="translate(176.996875 23.798437)scale(0.1 -0.1)">
      <defs>
       <path id="DejaVuSans-74" d="M 1172 4494 
L 1172 3500 
L 2356 3500 
L 2356 3053 
L 1172 3053 
L 1172 1153 
Q 1172 725 1289 603 
Q 1406 481 1766 481 
L 2356 481 
L 2356 0 
L 1766 0 
Q 1100 0 847 248 
Q 594 497 594 1153 
L 594 3053 
L 172 3053 
L 172 3500 
L 594 3500 
L 594 4494 
L 1172 4494 
z
" transform="scale(0.015625)"></path>
       <path id="DejaVuSans-72" d="M 2631 2963 
Q 2534 3019 2420 3045 
Q 2306 3072 2169 3072 
Q 1681 3072 1420 2755 
Q 1159 2438 1159 1844 
L 1159 0 
L 581 0 
L 581 3500 
L 1159 3500 
L 1159 2956 
Q 1341 3275 1631 3429 
Q 1922 3584 2338 3584 
Q 2397 3584 2469 3576 
Q 2541 3569 2628 3553 
L 2631 2963 
z
" transform="scale(0.015625)"></path>
       <path id="DejaVuSans-61" d="M 2194 1759 
Q 1497 1759 1228 1600 
Q 959 1441 959 1056 
Q 959 750 1161 570 
Q 1363 391 1709 391 
Q 2188 391 2477 730 
Q 2766 1069 2766 1631 
L 2766 1759 
L 2194 1759 
z
M 3341 1997 
L 3341 0 
L 2766 0 
L 2766 531 
Q 2569 213 2275 61 
Q 1981 -91 1556 -91 
Q 1019 -91 701 211 
Q 384 513 384 1019 
Q 384 1609 779 1909 
Q 1175 2209 1959 2209 
L 2766 2209 
L 2766 2266 
Q 2766 2663 2505 2880 
Q 2244 3097 1772 3097 
Q 1472 3097 1187 3025 
Q 903 2953 641 2809 
L 641 3341 
Q 956 3463 1253 3523 
Q 1550 3584 1831 3584 
Q 2591 3584 2966 3190 
Q 3341 2797 3341 1997 
z
" transform="scale(0.015625)"></path>
       <path id="DejaVuSans-69" d="M 603 3500 
L 1178 3500 
L 1178 0 
L 603 0 
L 603 3500 
z
M 603 4863 
L 1178 4863 
L 1178 4134 
L 603 4134 
L 603 4863 
z
" transform="scale(0.015625)"></path>
       <path id="DejaVuSans-6e" d="M 3513 2113 
L 3513 0 
L 2938 0 
L 2938 2094 
Q 2938 2591 2744 2837 
Q 2550 3084 2163 3084 
Q 1697 3084 1428 2787 
Q 1159 2491 1159 1978 
L 1159 0 
L 581 0 
L 581 3500 
L 1159 3500 
L 1159 2956 
Q 1366 3272 1645 3428 
Q 1925 3584 2291 3584 
Q 2894 3584 3203 3211 
Q 3513 2838 3513 2113 
z
" transform="scale(0.015625)"></path>
       <path id="DejaVuSans-20" transform="scale(0.015625)"></path>
       <path id="DejaVuSans-6c" d="M 603 4863 
L 1178 4863 
L 1178 0 
L 603 0 
L 603 4863 
z
" transform="scale(0.015625)"></path>
       <path id="DejaVuSans-73" d="M 2834 3397 
L 2834 2853 
Q 2591 2978 2328 3040 
Q 2066 3103 1784 3103 
Q 1356 3103 1142 2972 
Q 928 2841 928 2578 
Q 928 2378 1081 2264 
Q 1234 2150 1697 2047 
L 1894 2003 
Q 2506 1872 2764 1633 
Q 3022 1394 3022 966 
Q 3022 478 2636 193 
Q 2250 -91 1575 -91 
Q 1294 -91 989 -36 
Q 684 19 347 128 
L 347 722 
Q 666 556 975 473 
Q 1284 391 1588 391 
Q 1994 391 2212 530 
Q 2431 669 2431 922 
Q 2431 1156 2273 1281 
Q 2116 1406 1581 1522 
L 1381 1569 
Q 847 1681 609 1914 
Q 372 2147 372 2553 
Q 372 3047 722 3315 
Q 1072 3584 1716 3584 
Q 2034 3584 2315 3537 
Q 2597 3491 2834 3397 
z
" transform="scale(0.015625)"></path>
      </defs>
      <use xlink:href="#DejaVuSans-74"></use>
      <use xlink:href="#DejaVuSans-72" x="39.208984"></use>
      <use xlink:href="#DejaVuSans-61" x="80.322266"></use>
      <use xlink:href="#DejaVuSans-69" x="141.601562"></use>
      <use xlink:href="#DejaVuSans-6e" x="169.384766"></use>
      <use xlink:href="#DejaVuSans-20" x="232.763672"></use>
      <use xlink:href="#DejaVuSans-6c" x="264.550781"></use>
      <use xlink:href="#DejaVuSans-6f" x="292.333984"></use>
      <use xlink:href="#DejaVuSans-73" x="353.515625"></use>
      <use xlink:href="#DejaVuSans-73" x="405.615234"></use>
     </g>
    </g>
    <g id="line2d_28">
     <path d="M 148.996875 34.976562 
L 158.996875 34.976562 
L 168.996875 34.976562 
" style="fill: none; stroke: #ff7f0e; stroke-width: 1.5; stroke-linecap: square"></path>
    </g>
    <g id="text_15">
     <!-- test loss -->
     <g transform="translate(176.996875 38.476562)scale(0.1 -0.1)">
      <use xlink:href="#DejaVuSans-74"></use>
      <use xlink:href="#DejaVuSans-65" x="39.208984"></use>
      <use xlink:href="#DejaVuSans-73" x="100.732422"></use>
      <use xlink:href="#DejaVuSans-74" x="152.832031"></use>
      <use xlink:href="#DejaVuSans-20" x="192.041016"></use>
      <use xlink:href="#DejaVuSans-6c" x="223.828125"></use>
      <use xlink:href="#DejaVuSans-6f" x="251.611328"></use>
      <use xlink:href="#DejaVuSans-73" x="312.792969"></use>
      <use xlink:href="#DejaVuSans-73" x="364.892578"></use>
     </g>
    </g>
   </g>
  </g>
 </g>
 <defs>
  <clipPath id="pc57eb20df7">
   <rect x="36.465625" y="7.2" width="195.3" height="135.9"></rect>
  </clipPath>
 </defs>
</svg>